<?xml version="1.0" encoding="UTF-8" standalone="no"?>
<!-- Created with Inkscape (http://www.inkscape.org/) -->

<svg
   xmlns:dc="http://purl.org/dc/elements/1.1/"
   xmlns:cc="http://creativecommons.org/ns#"
   xmlns:rdf="http://www.w3.org/1999/02/22-rdf-syntax-ns#"
   xmlns:svg="http://www.w3.org/2000/svg"
   xmlns="http://www.w3.org/2000/svg"
   xmlns:sodipodi="http://sodipodi.sourceforge.net/DTD/sodipodi-0.dtd"
   xmlns:inkscape="http://www.inkscape.org/namespaces/inkscape"
   width="744.09448819"
   height="1052.3622047"
   id="svg2"
   version="1.1"
   inkscape:version="0.48.2 r9819"
   sodipodi:docname="Nytt dokument 1">
  <defs
     id="defs4" />
  <sodipodi:namedview
     id="base"
     pagecolor="#ffffff"
     bordercolor="#666666"
     borderopacity="1.0"
     inkscape:pageopacity="0.0"
     inkscape:pageshadow="2"
     inkscape:zoom="0.86947252"
     inkscape:cx="210.64396"
     inkscape:cy="635.7671"
     inkscape:document-units="px"
     inkscape:current-layer="layer1"
     showgrid="false"
     inkscape:window-width="1920"
     inkscape:window-height="1143"
     inkscape:window-x="0"
     inkscape:window-y="25"
     inkscape:window-maximized="1" />
  <metadata
     id="metadata7">
    <rdf:RDF>
      <cc:Work
         rdf:about="">
        <dc:format>image/svg+xml</dc:format>
        <dc:type
           rdf:resource="http://purl.org/dc/dcmitype/StillImage" />
        <dc:title></dc:title>
      </cc:Work>
    </rdf:RDF>
  </metadata>
  <g
     inkscape:label="Layer 1"
     inkscape:groupmode="layer"
     id="layer1">
    <rect
       style="fill:#f5ecec;fill-opacity:1;stroke:#000000;stroke-opacity:1"
       id="rect2985"
       width="518.57141"
       height="327.14285"
       x="94.079926"
       y="188.14905" />
    <path
       style="fill:none;stroke:#000000;stroke-width:1px;stroke-linecap:butt;stroke-linejoin:miter;stroke-opacity:1"
       d="m 607.26473,167.9179 c -1.53349,0.38337 -3.06699,0.76675 -4.60049,1.15012 -0.38337,0.38338 -0.66518,0.90766 -1.15012,1.15013 -0.3429,0.17145 -0.80722,-0.17145 -1.15012,0 -0.96987,0.48493 -1.39802,1.69875 -2.30025,2.30024 -0.71327,0.47552 -1.48698,0.87904 -2.30024,1.15012 -0.3637,0.12124 -0.87904,-0.27108 -1.15012,0 -0.27109,0.27109 0.27108,0.87904 0,1.15013 -2.37965,2.37964 0.093,-3.63642 -2.30025,1.15012 -0.17145,0.3429 0.27109,0.87903 0,1.15012 -0.27109,0.27109 -0.87904,-0.27109 -1.15012,0 -0.27109,0.27109 0.27108,0.87904 0,1.15012 -0.27109,0.27109 -0.87904,-0.27108 -1.15012,0 -0.27109,0.27109 0,0.76675 0,1.15013 0,0.38337 0,0.76674 0,1.15012"
       id="path3755"
       inkscape:connector-curvature="0" />
    <path
       style="fill:none;stroke:#000000;stroke-width:1px;stroke-linecap:butt;stroke-linejoin:miter;stroke-opacity:1"
       d="m 585.41241,166.76778 c 0.76674,1.53349 1.66349,3.00861 2.30024,4.60049 0.14238,0.35595 -0.17145,0.80722 0,1.15012 0.24247,0.48493 0.76675,0.76675 1.15012,1.15012 1.16913,1.16913 1.83605,1.59358 2.30025,3.45037 0.18596,0.74386 -0.24247,1.57284 0,2.30025 0.44037,1.32112 2.74583,1.59571 3.45037,2.30024 1.52988,1.52988 -1.52988,0.77037 0,2.30025 0.54217,0.54217 1.75807,-0.54218 2.30024,0 0.27109,0.27108 -0.17145,0.80722 0,1.15012 0.24247,0.48493 1.5335,0.76675 1.15012,1.15012 -0.38337,0.38338 -0.76674,-0.76675 -1.15012,-1.15012"
       id="path3757"
       inkscape:connector-curvature="0" />
    <path
       style="fill:none;stroke:#000000;stroke-width:1px;stroke-linecap:butt;stroke-linejoin:miter;stroke-opacity:1"
       d="m 571.61093,164.46753 c -0.38337,1.5335 -0.76674,3.067 -1.15012,4.60049 0,0.76675 0.18597,1.55639 0,2.30025 -0.20791,0.83165 -0.87903,1.48698 -1.15012,2.30024 -0.30858,0.92574 0.36748,3.86554 0,4.60049 -0.24247,0.48494 -0.90766,0.66519 -1.15012,1.15013 -0.3429,0.6858 0.76674,2.30024 0,2.30024 -0.38338,0 0.38337,-1.15012 0,-1.15012 -0.54218,0 -0.60795,1.15012 -1.15013,1.15012 -1.21233,0 -2.26157,-0.91236 -3.45036,-1.15012 -0.75186,-0.15037 -1.5335,0 -2.30025,0 -1.91687,0 -3.83374,0 -5.75061,0 -2.30025,0 -4.60049,0 -6.90074,0 -0.38337,0 -0.87903,0.27109 -1.15012,0 -0.27109,-0.27109 0,-0.76675 0,-1.15012 0,-2.30025 0,-4.60049 0,-6.90074 0,-0.76675 0,-1.5335 0,-2.30024 0,-0.38338 -0.38337,-1.15013 0,-1.15013 0.38337,0 0,1.5335 0,1.15013 0,-2.19071 -0.76675,-3.17653 2.30024,-2.30025 1.9851,0.56717 3.71939,1.93093 5.75062,2.30025 2.8027,0.50958 7.16144,0 10.3511,0"
       id="path3759"
       inkscape:connector-curvature="0" />
    <path
       style="fill:none;stroke:#000000;stroke-width:1px;stroke-linecap:butt;stroke-linejoin:miter;stroke-opacity:1"
       d="m 534.80701,182.86949 c -2.73368,-1.16676 -4.34676,-1.15012 -6.90073,-1.15012 -1.3313,0 -4.72381,0.2567 -5.75062,0 -0.83165,-0.20791 -1.48698,-0.87904 -2.30024,-1.15012 -0.3637,-0.12124 -0.78642,0.12123 -1.15012,0 -1.62652,-0.54218 -2.93718,-1.88442 -4.60049,-2.30025 -0.8537,-0.21342 -4.24747,0.35303 -4.60049,0 -0.27109,-0.27109 0.27108,-0.87903 0,-1.15012 -0.27537,-0.27537 -4.60049,0.26145 -4.60049,0 0,-0.38338 0.76674,0 1.15012,0"
       id="path3761"
       inkscape:connector-curvature="0" />
    <rect
       style="fill:#ffffff;fill-opacity:1;stroke:#000000;stroke-width:0.30118110999999997;stroke-miterlimit:4;stroke-opacity:1;stroke-dasharray:none"
       id="rect3763"
       width="378.39035"
       height="302.48224"
       x="109.26165"
       y="198.97121" />
    <rect
       style="fill:#ffffff;fill-opacity:1;stroke:#000000;stroke-width:0.46831331;stroke-miterlimit:4;stroke-opacity:1;stroke-dasharray:none"
       id="rect3765"
       width="102.36091"
       height="38.930477"
       x="497.71558"
       y="203.5717" />
    <rect
       style="fill:#ffffff;fill-opacity:1;stroke:#000000;stroke-width:0.46831331;stroke-miterlimit:4;stroke-opacity:1;stroke-dasharray:none"
       id="rect3765-0"
       width="102.36091"
       height="38.930477"
       x="497.71558"
       y="248.42648" />
    <text
       xml:space="preserve"
       style="font-size:28.59529877px;font-style:normal;font-weight:normal;line-height:125%;letter-spacing:0px;word-spacing:0px;fill:#000000;fill-opacity:1;stroke:none;font-family:Sans"
       x="501.64676"
       y="233.06133"
       id="text3785"
       sodipodi:linespacing="125%"><tspan
         sodipodi:role="line"
         id="tspan3787"
         x="501.64676"
         y="233.06133">FARGE</tspan></text>
    <text
       xml:space="preserve"
       style="font-size:28.59529877px;font-style:normal;font-weight:normal;line-height:125%;letter-spacing:0px;word-spacing:0px;fill:#000000;fill-opacity:1;stroke:none;font-family:Sans"
       x="499.91541"
       y="279.53778"
       id="text3785-8"
       sodipodi:linespacing="125%"><tspan
         sodipodi:role="line"
         id="tspan3787-1"
         x="499.91541"
         y="279.53778">BEVEG</tspan></text>
    <path
       sodipodi:type="star"
       style="fill:#0dff00;fill-opacity:1;stroke:#000000;stroke-width:0.30118110999999997;stroke-miterlimit:4;stroke-opacity:1;stroke-dasharray:none"
       id="path3810"
       sodipodi:sides="3"
       sodipodi:cx="163.31741"
       sodipodi:cy="257.62747"
       sodipodi:r1="41.099789"
       sodipodi:r2="20.549894"
       sodipodi:arg1="1.2578951"
       sodipodi:arg2="2.3050927"
       inkscape:flatsided="false"
       inkscape:rounded="0"
       inkscape:randomized="0"
       d="m 175.96876,296.73164 -26.42111,-23.84993 -26.42111,-23.84993 33.8652,-10.95639 33.8652,-10.95639 -7.44409,34.80632 z"
       inkscape:transform-center-x="6.3256743"
       inkscape:transform-center-y="4.2978475"
       transform="translate(49.455272,8.0508582)" />
    <path
       sodipodi:type="arc"
       style="fill:#ff0000;fill-opacity:1;stroke:#000000;stroke-width:0.30118110999999997;stroke-miterlimit:4;stroke-opacity:1;stroke-dasharray:none"
       id="path3812"
       sodipodi:cx="391.04169"
       sodipodi:cy="309.383"
       sodipodi:rx="42.554535"
       sodipodi:ry="42.554535"
       d="m 433.59622,309.383 a 42.554535,42.554535 0 1 1 -85.10907,0 42.554535,42.554535 0 1 1 85.10907,0 z"
       transform="translate(-3.4503678,-19.552084)" />
    <rect
       style="fill:#000cff;fill-opacity:1;stroke:#000000;stroke-width:0.30118110999999997;stroke-miterlimit:4;stroke-opacity:1;stroke-dasharray:none"
       id="rect3814"
       width="119.61275"
       height="67.857231"
       x="208.1722"
       y="361.13849" />
    <rect
       style="fill:none;stroke:#000000;stroke-width:0.30118111;stroke-miterlimit:4;stroke-opacity:1;stroke-dasharray:none"
       id="rect3816"
       width="98.33548"
       height="9.2009811"
       x="499.1532"
       y="302.48224" />
    <path
       sodipodi:type="arc"
       style="fill:#000000;fill-opacity:1;stroke:#000000;stroke-width:0.30118111;stroke-miterlimit:4;stroke-opacity:1;stroke-dasharray:none"
       id="path3818"
       sodipodi:cx="533.9444"
       sodipodi:cy="313.69595"
       sodipodi:rx="8.3383884"
       sodipodi:ry="8.3383884"
       d="m 542.28279,313.69595 a 8.3383884,8.3383884 0 1 1 -16.67678,0 8.3383884,8.3383884 0 1 1 16.67678,0 z"
       transform="translate(-0.5750613,-6.3256706)" />
    <g
       id="g3978"
       transform="translate(-0.5750613,-5.750613)">
      <rect
         y="406.05276"
         x="495.10043"
         height="29.209093"
         width="106.44099"
         id="rect3765-0-6"
         style="fill:#ffffff;fill-opacity:1;stroke:#000000;stroke-width:0.4136548;stroke-miterlimit:4;stroke-opacity:1;stroke-dasharray:none" />
      <text
         sodipodi:linespacing="125%"
         id="text3939"
         y="427.84561"
         x="500.24783"
         style="font-size:21.06804276px;font-style:normal;font-weight:normal;line-height:125%;letter-spacing:0px;word-spacing:0px;fill:#000000;fill-opacity:1;stroke:none;font-family:Sans"
         xml:space="preserve"><tspan
           y="427.84561"
           x="500.24783"
           id="tspan3941"
           sodipodi:role="line">TREKANT</tspan></text>
      <rect
         y="442.56918"
         x="494.8129"
         height="29.209093"
         width="106.44099"
         id="rect3765-0-6-6"
         style="fill:#ffffff;fill-opacity:1;stroke:#000000;stroke-width:0.4136548;stroke-miterlimit:4;stroke-opacity:1;stroke-dasharray:none" />
      <text
         sodipodi:linespacing="125%"
         id="text3939-4"
         y="464.36203"
         x="499.9603"
         style="font-size:21.06804276px;font-style:normal;font-weight:normal;line-height:125%;letter-spacing:0px;word-spacing:0px;fill:#000000;fill-opacity:1;stroke:none;font-family:Sans"
         xml:space="preserve"><tspan
           y="464.36203"
           x="499.9603"
           id="tspan3941-1"
           sodipodi:role="line">FIRKANT</tspan></text>
      <rect
         y="476.4978"
         x="494.81293"
         height="29.209093"
         width="106.44099"
         id="rect3765-0-6-4"
         style="fill:#ffffff;fill-opacity:1;stroke:#000000;stroke-width:0.4136548;stroke-miterlimit:4;stroke-opacity:1;stroke-dasharray:none" />
      <text
         sodipodi:linespacing="125%"
         id="text3939-1"
         y="498.29065"
         x="499.96036"
         style="font-size:21.06804276px;font-style:normal;font-weight:normal;line-height:125%;letter-spacing:0px;word-spacing:0px;fill:#000000;fill-opacity:1;stroke:none;font-family:Sans"
         xml:space="preserve"><tspan
           y="498.29065"
           x="499.96036"
           id="tspan3941-7"
           sodipodi:role="line">SIRKEL</tspan></text>
    </g>
    <text
       xml:space="preserve"
       style="font-size:40px;font-style:normal;font-weight:normal;line-height:125%;letter-spacing:0px;word-spacing:0px;fill:#000000;fill-opacity:1;stroke:none;font-family:Sans"
       x="104.66116"
       y="98.910545"
       id="text4008"
       sodipodi:linespacing="125%"><tspan
         sodipodi:role="line"
         id="tspan4010"
         x="104.66116"
         y="98.910545">UTKAST TIL LAYOUT</tspan></text>
  </g>
</svg>
